<?xml version="1.0" encoding="utf-8"?>
<!-- Generator: Adobe Illustrator 19.2.0, SVG Export Plug-In . SVG Version: 6.00 Build 0)  -->
<svg version="1.1" id="US_UK_Download_on_the" xmlns="http://www.w3.org/2000/svg" xmlns:xlink="http://www.w3.org/1999/xlink"
	 x="0px" y="0px" viewBox="0 0 135 40" style="enable-background:new 0 0 135 40;" xml:space="preserve">
<style type="text/css">
	.st0{fill:#A6A6A6;}
	.st1{fill-rule:evenodd;clip-rule:evenodd;fill:#FFFFFF;}
	.st2{fill-rule:evenodd;clip-rule:evenodd;fill:#FFC52F;}
	.st3{fill-rule:evenodd;clip-rule:evenodd;fill:#FB3549;}
	.st4{fill-rule:evenodd;clip-rule:evenodd;fill:#00F17F;}
	.st5{fill-rule:evenodd;clip-rule:evenodd;fill:#00C9FD;}
</style>
<g>
	<path class="st0" d="M130.2,40H4.7C2.1,40,0,37.9,0,35.3V4.7C0,2.1,2.1,0,4.7,0h125.5c2.6,0,4.8,2.1,4.8,4.7v30.5
		C135,37.9,132.8,40,130.2,40L130.2,40z"/>
	<path d="M134,35.3c0,2.1-1.7,3.8-3.8,3.8H4.7c-2.1,0-3.8-1.7-3.8-3.8V4.7c0-2.1,1.7-3.8,3.8-3.8h125.5c2.1,0,3.8,1.7,3.8,3.8
		L134,35.3L134,35.3z"/>
</g>
<path class="st1" d="M46.6,23.1h-6v1.8h4.2c-0.2,2.5-2.3,3.6-4.2,3.6c-2.5,0-4.7-2-4.7-4.7c0-2.7,2.1-4.8,4.7-4.8
	c2,0,3.2,1.3,3.2,1.3l1.2-1.3c0,0-1.6-1.8-4.5-1.8c-3.7,0-6.6,3.1-6.6,6.5c0,3.3,2.7,6.5,6.7,6.5c3.5,0,6.1-2.4,6.1-5.9
	C46.7,23.5,46.6,23.1,46.6,23.1L46.6,23.1z"/>
<path class="st1" d="M51.7,23.5c1.2,0,2.4,1,2.4,2.6c0,1.5-1.1,2.5-2.4,2.5c-1.3,0-2.4-1.1-2.4-2.6C49.3,24.6,50.4,23.5,51.7,23.5
	L51.7,23.5L51.7,23.5z M51.7,21.8c-2.5,0-4.2,1.9-4.2,4.2c0,2.3,1.7,4.2,4.2,4.2c2.3,0,4.2-1.8,4.2-4.2
	C55.9,23.3,53.7,21.8,51.7,21.8L51.7,21.8z"/>
<path class="st1" d="M61,23.5c1.2,0,2.4,1,2.4,2.6c0,1.5-1.1,2.5-2.4,2.5c-1.3,0-2.4-1.1-2.4-2.6C58.6,24.6,59.7,23.5,61,23.5
	L61,23.5L61,23.5z M61,21.8c-2.5,0-4.2,1.9-4.2,4.2c0,2.3,1.7,4.2,4.2,4.2c2.3,0,4.2-1.8,4.2-4.2C65.2,23.3,63,21.8,61,21.8L61,21.8
	z"/>
<path class="st1" d="M70.2,23.5c1.1,0,2.2,0.9,2.2,2.6c0,1.6-1.1,2.5-2.3,2.5c-1.2,0-2.3-1-2.3-2.5C67.9,24.4,69,23.5,70.2,23.5
	L70.2,23.5L70.2,23.5z M70.1,21.8c-2.3,0-4,2-4,4.2c0,2.5,2.1,4.2,4,4.2c1.2,0,1.8-0.5,2.3-1V30c0,1.4-0.9,2.3-2.2,2.3
	c-1.3,0-1.9-1-2.1-1.5l-1.6,0.7c0.6,1.2,1.7,2.5,3.8,2.5c2.2,0,4-1.4,4-4.4v-7.5h-1.8v0.7C71.8,22.2,71,21.8,70.1,21.8L70.1,21.8z"
	/>
<path class="st1" d="M82.4,23.4c0.8,0,1.3,0.4,1.6,0.9l-3.8,1.6C80,24.7,81.1,23.4,82.4,23.4L82.4,23.4L82.4,23.4z M82.3,21.8
	c-2.1,0-3.9,1.7-3.9,4.2c0,2.6,2,4.2,4.1,4.2c1.8,0,2.9-1,3.5-1.8l-1.5-1c-0.4,0.6-1,1.2-2.1,1.2c-1.2,0-1.7-0.6-2.1-1.3l5.6-2.3
	l-0.3-0.7C85.2,22.9,84,21.8,82.3,21.8L82.3,21.8z"/>
<rect x="75.5" y="17.6" class="st1" width="1.8" height="12.4"/>
<g>
	<path class="st2" d="M23.8,24.2c2.4-1.3,4.2-2.3,4.4-2.4c0.5-0.3,1-1,0-1.5c-0.3-0.2-2.1-1.2-4.4-2.4L20.6,21L23.8,24.2z"/>
	<path class="st3" d="M20.6,21L10.6,31.2c0.2,0,0.5,0,0.8-0.2c0.7-0.4,7.7-4.2,12.4-6.8L20.6,21z"/>
	<path class="st4" d="M20.6,21l3.2-3.2c0,0-11.7-6.4-12.4-6.8c-0.3-0.1-0.6-0.2-0.9-0.1L20.6,21z"/>
	<path class="st5" d="M20.6,21L10.5,11c-0.4,0.1-0.8,0.5-0.8,1.2C9.8,13.3,9.8,29,9.8,30c0,0.7,0.3,1.2,0.8,1.2L20.6,21z"/>
</g>
<rect x="100.3" y="17.6" class="st1" width="1.8" height="12.4"/>
<rect x="90.5" y="17.6" class="st1" width="1.8" height="12.4"/>
<path class="st1" d="M90.5,17.6h4.5c2.2,0,3.9,1.8,3.9,3.9l0,0c0,2.2-1.8,3.9-3.9,3.9h-4.5V17.6L90.5,17.6z M92.3,19.4v4.2h2.6
	c1.1,0,2.1-0.9,2.1-2.1c0-1.1-0.9-2.1-2.1-2.1H92.3z"/>
<polygon class="st1" points="115.8,34 121.1,21.8 119.1,21.8 113.8,34 "/>
<polygon class="st1" points="116.4,31.2 112.2,21.8 114.3,21.8 117.1,28.3 116.4,28.3 "/>
<path class="st1" d="M109.7,30h1.8v-4.4c0.3-4.6-5.5-5.7-7.7-2.4l1.5,1c1.1-1.9,4.1-1.4,4.3,0.6c-0.9-0.2-1.9-0.4-2.8-0.3
	c-1.4,0.1-2.6,1-2.8,2.5c-0.1,0.8,0.1,1.8,0.6,2.4c0.9,0.9,2.3,1.1,3.5,0.7c0.7-0.2,1.2-0.6,1.6-1.1V30L109.7,30z M109.7,26.4
	c-0.2,1-1,1.8-2,2c-2.1,0.6-2.7-2.9,0.5-2.4C108.7,26.1,109.2,26.2,109.7,26.4z"/>
<path class="st1" d="M40.4,10h-2.9v0.9h2c-0.1,1.2-1.1,1.7-2,1.7c-1.2,0-2.2-0.9-2.2-2.3c0-1.3,1-2.3,2.2-2.3c1,0,1.5,0.6,1.5,0.6
	L39.7,8c0,0-0.8-0.9-2.2-0.9c-1.8,0-3.1,1.5-3.1,3.1c0,1.6,1.3,3.1,3.2,3.1c1.7,0,2.9-1.1,2.9-2.8C40.5,10.2,40.4,10,40.4,10
	L40.4,10z"/>
<rect x="52.2" y="7.4" class="st1" width="0.9" height="5.9"/>
<path class="st1" d="M47.2,13.3h0.9v-5h1.5V7.4c-1.3,0-2.5,0-3.8,0v0.9h1.5V13.3z"/>
<path class="st1" d="M41.4,13.3h3.4v-0.9h-2.5v-1.6h2.2V9.9h-2.2V8.3h2.5V7.4h-3.4C41.4,9.4,41.4,11.3,41.4,13.3z"/>
<path class="st1" d="M55.2,13.3h0.9v-5h1.5V7.4c-1.3,0-2.5,0-3.8,0v0.9h1.5V13.3z"/>
<path class="st1" d="M63,12.6c-1.2,0-2.2-1-2.2-2.3C60.8,9,61.7,8,63,8c1.2,0,2.2,1,2.2,2.3C65.2,11.6,64.2,12.6,63,12.6L63,12.6z
	 M63,7.2c-1.8,0-3.1,1.5-3.1,3.1c0,1.6,1.3,3.1,3.1,3.1c1.9,0,3.1-1.6,3.1-3.1C66.1,8.7,64.8,7.2,63,7.2z"/>
<polygon class="st1" points="67,13.3 67.9,13.3 67.9,9 70.7,13.3 71.6,13.3 71.6,7.4 70.7,7.4 70.7,11.7 67.9,7.4 67,7.4 "/>
</svg>
